<svg width="16" height="19" viewBox="0 0 16 19" fill="none" xmlns="http://www.w3.org/2000/svg">
<path fill-rule="evenodd" clip-rule="evenodd" d="M0.31367 5.91429C0 6.59627 0 7.37214 0 8.92386V13.77C0 15.925 0 17.0025 0.66947 17.672C1.28371 18.2862 2.24142 18.3369 4.05968 18.3411C4.02106 18.2346 4 18.1198 4 18V13C4 11.7325 5.16343 11 6.2 11H9.8C10.8366 11 12 11.7325 12 13V18C12 18.1198 11.9789 18.2346 11.9403 18.3411C13.7586 18.3369 14.7163 18.2862 15.3305 17.672C16 17.0025 16 15.925 16 13.77V8.92386C16 7.37214 16 6.59627 15.6863 5.91429C15.3727 5.2323 14.7836 4.72738 13.6054 3.71753L12.4626 2.73794C10.3331 0.912645 9.26831 0 8 0C6.73169 0 5.66694 0.912645 3.53743 2.73794L2.39457 3.71753C1.21642 4.72737 0.62734 5.2323 0.31367 5.91429ZM10.0598 18.3414C10.0211 18.2349 10 18.1199 10 18V13.0547C9.96749 13.0313 9.90008 13 9.8 13H6.2C6.09992 13 6.03251 13.0313 6 13.0547V18C6 18.1199 5.97889 18.2349 5.94019 18.3414H10.0598Z" fill="white"/>
</svg>
